<svg width="24" height="25" viewBox="0 0 24 25" fill="none" xmlns="http://www.w3.org/2000/svg">
<g clip-path="url(#clip0_1_70)">
<path d="M24 12.6399C24 6.01252 18.6274 0.639893 12 0.639893C5.37262 0.639893 0 6.01242 0 12.6399C0 18.6294 4.38825 23.5939 10.125 24.4941V16.1086H7.07812V12.6399H10.125V9.99614C10.125 6.98864 11.9166 5.32739 14.6575 5.32739C15.9705 5.32739 17.3438 5.56177 17.3438 5.56177V8.51489H15.8306C14.3398 8.51489 13.875 9.43992 13.875 10.389V12.6399H17.2031L16.6711 16.1086H13.875V24.4941C19.6117 23.5939 24 18.6295 24 12.6399Z" fill="#1877F2"/>
<path d="M16.6711 16.1086L17.2031 12.6399H13.875V10.389C13.875 9.43983 14.3399 8.51489 15.8306 8.51489H17.3438V5.56177C17.3438 5.56177 15.9705 5.32739 14.6575 5.32739C11.9166 5.32739 10.125 6.98864 10.125 9.99614V12.6399H7.07812V16.1086H10.125V24.4941C10.7453 24.5913 11.3722 24.6401 12 24.6399C12.6278 24.6401 13.2547 24.5913 13.875 24.4941V16.1086H16.6711Z" fill="white"/>
</g>
<defs>
<clipPath id="clip0_1_70">
<rect width="24" height="24" fill="white" transform="translate(0 0.639893)"/>
</clipPath>
</defs>
</svg>
