<svg width="234" height="44" viewBox="0 0 234 44" fill="none" xmlns="http://www.w3.org/2000/svg">
<path d="M2.27557 35V8.81818H19.9176V13.3821H7.81108V19.6207H19.0099V24.1847H7.81108V30.4361H19.9688V35H2.27557ZM29.8157 35.3707C28.5629 35.3707 27.4464 35.1534 26.4663 34.7188C25.4862 34.2756 24.7106 33.6236 24.1396 32.7628C23.5771 31.8935 23.2958 30.8111 23.2958 29.5156C23.2958 28.4247 23.4961 27.5085 23.8967 26.767C24.2972 26.0256 24.8427 25.429 25.533 24.9773C26.2234 24.5256 27.0075 24.1847 27.8853 23.9545C28.7717 23.7244 29.7006 23.5625 30.6722 23.4688C31.8143 23.3494 32.7347 23.2386 33.4336 23.1364C34.1325 23.0256 34.6396 22.8636 34.9549 22.6506C35.2702 22.4375 35.4279 22.1222 35.4279 21.7045V21.6278C35.4279 20.8182 35.1722 20.1918 34.6609 19.7486C34.158 19.3054 33.4421 19.0838 32.5131 19.0838C31.533 19.0838 30.7532 19.3011 30.1737 19.7358C29.5941 20.1619 29.2106 20.6989 29.0231 21.3466L23.9862 20.9375C24.2418 19.7443 24.7447 18.7131 25.4947 17.8438C26.2447 16.9659 27.212 16.2926 28.3967 15.8239C29.5898 15.3466 30.9705 15.108 32.5387 15.108C33.6296 15.108 34.6737 15.2358 35.6708 15.4915C36.6765 15.7472 37.5671 16.1435 38.3427 16.6804C39.1268 17.2173 39.7447 17.9077 40.1964 18.7514C40.6481 19.5866 40.8739 20.5881 40.8739 21.7557V35H35.7092V32.277H35.5558C35.2404 32.8906 34.8185 33.4318 34.2901 33.9006C33.7617 34.3608 33.1268 34.723 32.3853 34.9872C31.6438 35.2429 30.7873 35.3707 29.8157 35.3707ZM31.3754 31.6122C32.1765 31.6122 32.8839 31.4545 33.4975 31.1392C34.1112 30.8153 34.5927 30.3807 34.9421 29.8352C35.2915 29.2898 35.4663 28.6719 35.4663 27.9815V25.8977C35.2958 26.0085 35.0614 26.1108 34.7631 26.2045C34.4734 26.2898 34.1452 26.3707 33.7788 26.4474C33.4123 26.5156 33.0458 26.5795 32.6793 26.6392C32.3129 26.6903 31.9805 26.7372 31.6822 26.7798C31.043 26.8736 30.4847 27.0227 30.0075 27.2273C29.5302 27.4318 29.1594 27.7088 28.8952 28.0582C28.631 28.3991 28.4989 28.8253 28.4989 29.3366C28.4989 30.0781 28.7674 30.6449 29.3043 31.0369C29.8498 31.4205 30.5401 31.6122 31.3754 31.6122ZM45.0991 35V15.3636H50.3789V18.7898H50.5835C50.9414 17.571 51.5423 16.6506 52.386 16.0284C53.2298 15.3977 54.2013 15.0824 55.3008 15.0824C55.5735 15.0824 55.8675 15.0994 56.1829 15.1335C56.4982 15.1676 56.7752 15.2145 57.0139 15.2741V20.1065C56.7582 20.0298 56.4045 19.9616 55.9528 19.902C55.5011 19.8423 55.0877 19.8125 54.7127 19.8125C53.9116 19.8125 53.1957 19.9872 52.565 20.3366C51.9428 20.6776 51.4485 21.1548 51.082 21.7685C50.7241 22.3821 50.5451 23.0895 50.5451 23.8906V35H45.0991ZM71.2585 15.3636V19.4545H59.4332V15.3636H71.2585ZM62.1179 10.6591H67.5639V28.9659C67.5639 29.4687 67.6406 29.8608 67.794 30.142C67.9474 30.4148 68.1605 30.6065 68.4332 30.7173C68.7145 30.8281 69.0384 30.8835 69.4048 30.8835C69.6605 30.8835 69.9162 30.8622 70.1719 30.8196C70.4276 30.7685 70.6236 30.7301 70.7599 30.7045L71.6165 34.7571C71.3438 34.8423 70.9602 34.9403 70.4659 35.0511C69.9716 35.1705 69.3707 35.2429 68.6634 35.2685C67.3509 35.3196 66.2003 35.1449 65.2116 34.7443C64.2315 34.3437 63.4688 33.7216 62.9233 32.8778C62.3778 32.0341 62.1094 30.9687 62.1179 29.6818V10.6591ZM80.674 23.6477V35H75.228V8.81818H80.5206V18.8281H80.7507C81.1939 17.669 81.9098 16.7614 82.8984 16.1051C83.8871 15.4403 85.1271 15.108 86.6186 15.108C87.9822 15.108 89.1712 15.4062 90.1854 16.0028C91.2081 16.5909 92.0007 17.4389 92.5632 18.5469C93.1342 19.6463 93.4155 20.9631 93.407 22.4972V35H87.9609V23.4688C87.9695 22.2585 87.6626 21.3168 87.0405 20.6435C86.4268 19.9702 85.5661 19.6335 84.4581 19.6335C83.7166 19.6335 83.0604 19.7912 82.4893 20.1065C81.9268 20.4219 81.4837 20.8821 81.1598 21.4872C80.8445 22.0838 80.6825 22.804 80.674 23.6477ZM103.139 8.81818V35H97.6928V8.81818H103.139ZM110.864 42.3636C110.173 42.3636 109.526 42.3082 108.92 42.1974C108.324 42.0952 107.83 41.9631 107.438 41.8011L108.665 37.7358C109.304 37.9318 109.879 38.0384 110.391 38.0554C110.911 38.0724 111.358 37.9531 111.733 37.6974C112.116 37.4418 112.428 37.0071 112.666 36.3935L112.986 35.5625L105.942 15.3636H111.669L115.734 29.7841H115.939L120.043 15.3636H125.808L118.176 37.1222C117.81 38.179 117.311 39.0994 116.68 39.8835C116.058 40.6761 115.27 41.2855 114.315 41.7116C113.361 42.1463 112.21 42.3636 110.864 42.3636Z" fill="white"/>
<path d="M124.244 35H120.92L130.534 8.81818H133.807L143.42 35H140.097L132.273 12.9602H132.068L124.244 35ZM125.472 24.7727H138.869V27.5852H125.472V24.7727ZM147.089 35V15.3636H150.004V18.3295H150.209C150.567 17.358 151.214 16.5696 152.152 15.9645C153.089 15.3594 154.146 15.0568 155.322 15.0568C155.544 15.0568 155.821 15.0611 156.153 15.0696C156.486 15.0781 156.737 15.0909 156.908 15.108V18.1761C156.805 18.1506 156.571 18.1122 156.205 18.0611C155.847 18.0014 155.467 17.9716 155.067 17.9716C154.112 17.9716 153.26 18.1719 152.51 18.5724C151.768 18.9645 151.18 19.5099 150.746 20.2088C150.32 20.8991 150.107 21.6875 150.107 22.5739V35H147.089ZM170.254 15.3636V17.9205H160.078V15.3636H170.254ZM163.044 10.6591H166.061V29.375C166.061 30.2273 166.185 30.8665 166.432 31.2926C166.688 31.7102 167.011 31.9915 167.403 32.1364C167.804 32.2727 168.226 32.3409 168.669 32.3409C169.001 32.3409 169.274 32.3239 169.487 32.2898C169.7 32.2472 169.871 32.2131 169.999 32.1875L170.612 34.8977C170.408 34.9744 170.122 35.0511 169.756 35.1278C169.389 35.2131 168.925 35.2557 168.362 35.2557C167.51 35.2557 166.675 35.0724 165.857 34.706C165.047 34.3395 164.374 33.7812 163.837 33.0312C163.308 32.2812 163.044 31.3352 163.044 30.1932V10.6591ZM174.793 35V15.3636H177.81V35H174.793ZM176.327 12.0909C175.739 12.0909 175.232 11.8906 174.805 11.4901C174.388 11.0895 174.179 10.608 174.179 10.0455C174.179 9.48295 174.388 9.00142 174.805 8.60085C175.232 8.20028 175.739 8 176.327 8C176.915 8 177.418 8.20028 177.835 8.60085C178.261 9.00142 178.474 9.48295 178.474 10.0455C178.474 10.608 178.261 11.0895 177.835 11.4901C177.418 11.8906 176.915 12.0909 176.327 12.0909ZM197.245 19.7614L194.534 20.5284C194.364 20.0767 194.113 19.6378 193.78 19.2116C193.456 18.777 193.013 18.419 192.451 18.1378C191.888 17.8565 191.168 17.7159 190.29 17.7159C189.088 17.7159 188.087 17.9929 187.286 18.5469C186.493 19.0923 186.097 19.7869 186.097 20.6307C186.097 21.3807 186.37 21.973 186.915 22.4077C187.461 22.8423 188.313 23.2045 189.472 23.4943L192.387 24.2102C194.142 24.6364 195.451 25.2884 196.311 26.1662C197.172 27.0355 197.603 28.1562 197.603 29.5284C197.603 30.6534 197.279 31.6591 196.631 32.5455C195.992 33.4318 195.097 34.1307 193.946 34.642C192.796 35.1534 191.458 35.4091 189.932 35.4091C187.929 35.4091 186.272 34.9744 184.959 34.1051C183.647 33.2358 182.816 31.9659 182.466 30.2955L185.33 29.5795C185.603 30.6364 186.118 31.429 186.877 31.9574C187.644 32.4858 188.645 32.75 189.881 32.75C191.287 32.75 192.404 32.4517 193.23 31.8551C194.066 31.25 194.483 30.5256 194.483 29.6818C194.483 29 194.245 28.429 193.767 27.9688C193.29 27.5 192.557 27.1506 191.569 26.9205L188.296 26.1534C186.498 25.7273 185.176 25.0668 184.333 24.1719C183.498 23.2685 183.08 22.1392 183.08 20.7841C183.08 19.6761 183.391 18.696 184.013 17.8438C184.644 16.9915 185.5 16.3224 186.583 15.8366C187.674 15.3509 188.909 15.108 190.29 15.108C192.233 15.108 193.759 15.5341 194.867 16.3864C195.983 17.2386 196.776 18.3636 197.245 19.7614ZM202.144 35V15.3636H205.059V18.3295H205.263C205.621 17.358 206.269 16.5696 207.207 15.9645C208.144 15.3594 209.201 15.0568 210.377 15.0568C210.599 15.0568 210.876 15.0611 211.208 15.0696C211.54 15.0781 211.792 15.0909 211.962 15.108V18.1761C211.86 18.1506 211.626 18.1122 211.259 18.0611C210.901 18.0014 210.522 17.9716 210.121 17.9716C209.167 17.9716 208.315 18.1719 207.565 18.5724C206.823 18.9645 206.235 19.5099 205.8 20.2088C205.374 20.8991 205.161 21.6875 205.161 22.5739V35H202.144ZM218.08 42.3636C217.568 42.3636 217.112 42.321 216.712 42.2358C216.311 42.1591 216.034 42.0824 215.881 42.0057L216.648 39.3466C217.381 39.5341 218.028 39.6023 218.591 39.5511C219.153 39.5 219.652 39.2486 220.087 38.7969C220.53 38.3537 220.935 37.6335 221.301 36.6364L221.864 35.1023L214.602 15.3636H217.875L223.295 31.0114H223.5L228.92 15.3636H232.193L223.858 37.8636C223.483 38.8778 223.018 39.7173 222.464 40.3821C221.911 41.0554 221.267 41.554 220.534 41.8778C219.81 42.2017 218.991 42.3636 218.08 42.3636Z" fill="#D5906E"/>
</svg>
