<svg width="85" height="64" viewBox="0 0 85 64" fill="none" xmlns="http://www.w3.org/2000/svg">
<path d="M8.02486 57H5.80895L12.218 39.5455H14.3999L20.8089 57H18.593L13.3771 42.3068H13.2408L8.02486 57ZM8.84304 50.1818H17.7749V52.0568H8.84304V50.1818ZM23.255 57V43.9091H25.1982V45.8864H25.3345C25.5732 45.2386 26.005 44.7131 26.63 44.3097C27.255 43.9062 27.9595 43.7045 28.7436 43.7045C28.8913 43.7045 29.076 43.7074 29.2976 43.7131C29.5192 43.7187 29.6868 43.7273 29.8004 43.7386V45.7841C29.7322 45.767 29.576 45.7415 29.3317 45.7074C29.093 45.6676 28.8402 45.6477 28.5732 45.6477C27.9368 45.6477 27.3686 45.7812 26.8686 46.0483C26.3743 46.3097 25.9822 46.6733 25.6925 47.1392C25.4084 47.5994 25.2663 48.125 25.2663 48.7159V57H23.255ZM38.6982 43.9091V45.6136H31.9141V43.9091H38.6982ZM33.8913 40.7727H35.9027V53.25C35.9027 53.8182 35.9851 54.2443 36.1499 54.5284C36.3203 54.8068 36.5362 54.9943 36.7976 55.0909C37.0646 55.1818 37.3459 55.2273 37.6413 55.2273C37.8629 55.2273 38.0447 55.2159 38.1868 55.1932C38.3288 55.1648 38.4425 55.142 38.5277 55.125L38.9368 56.9318C38.8004 56.983 38.6101 57.0341 38.3658 57.0852C38.1214 57.142 37.8118 57.1705 37.4368 57.1705C36.8686 57.1705 36.3118 57.0483 35.7663 56.804C35.2266 56.5597 34.7777 56.1875 34.4197 55.6875C34.0675 55.1875 33.8913 54.5568 33.8913 53.7955V40.7727ZM41.7237 57V43.9091H43.7351V57H41.7237ZM42.7464 41.7273C42.3544 41.7273 42.0163 41.5938 41.7322 41.3267C41.4538 41.0597 41.3146 40.7386 41.3146 40.3636C41.3146 39.9886 41.4538 39.6676 41.7322 39.4006C42.0163 39.1335 42.3544 39 42.7464 39C43.1385 39 43.4737 39.1335 43.7521 39.4006C44.0362 39.6676 44.1783 39.9886 44.1783 40.3636C44.1783 40.7386 44.0362 41.0597 43.7521 41.3267C43.4737 41.5938 43.1385 41.7273 42.7464 41.7273ZM56.6918 46.8409L54.8849 47.3523C54.7713 47.0511 54.6037 46.7585 54.3821 46.4744C54.1662 46.1847 53.8707 45.946 53.4957 45.7585C53.1207 45.571 52.6406 45.4773 52.0554 45.4773C51.2543 45.4773 50.5866 45.6619 50.0526 46.0312C49.5241 46.3949 49.2599 46.858 49.2599 47.4205C49.2599 47.9205 49.4418 48.3153 49.8054 48.6051C50.169 48.8949 50.7372 49.1364 51.5099 49.3295L53.4531 49.8068C54.6236 50.0909 55.4957 50.5256 56.0696 51.1108C56.6435 51.6903 56.9304 52.4375 56.9304 53.3523C56.9304 54.1023 56.7145 54.7727 56.2827 55.3636C55.8565 55.9545 55.2599 56.4205 54.4929 56.7614C53.7259 57.1023 52.8338 57.2727 51.8168 57.2727C50.4815 57.2727 49.3764 56.983 48.5014 56.4034C47.6264 55.8239 47.0724 54.9773 46.8395 53.8636L48.7486 53.3864C48.9304 54.0909 49.2741 54.6193 49.7798 54.9716C50.2912 55.3239 50.9588 55.5 51.7827 55.5C52.7202 55.5 53.4645 55.3011 54.0156 54.9034C54.5724 54.5 54.8509 54.017 54.8509 53.4545C54.8509 53 54.6918 52.6193 54.3736 52.3125C54.0554 52 53.5668 51.767 52.9077 51.6136L50.7259 51.1023C49.527 50.8182 48.6463 50.3778 48.0838 49.7812C47.527 49.179 47.2486 48.4261 47.2486 47.5227C47.2486 46.7841 47.456 46.1307 47.8707 45.5625C48.2912 44.9943 48.8622 44.5483 49.5838 44.2244C50.3111 43.9006 51.1349 43.7386 52.0554 43.7386C53.3509 43.7386 54.3679 44.0227 55.1065 44.5909C55.8509 45.1591 56.3793 45.9091 56.6918 46.8409ZM59.9581 57V43.9091H61.9013V45.8864H62.0376C62.2763 45.2386 62.7081 44.7131 63.3331 44.3097C63.9581 43.9062 64.6626 43.7045 65.4467 43.7045C65.5945 43.7045 65.7791 43.7074 66.0007 43.7131C66.2223 43.7187 66.3899 43.7273 66.5036 43.7386V45.7841C66.4354 45.767 66.2791 45.7415 66.0348 45.7074C65.7962 45.6676 65.5433 45.6477 65.2763 45.6477C64.6399 45.6477 64.0717 45.7812 63.5717 46.0483C63.0774 46.3097 62.6854 46.6733 62.3956 47.1392C62.1115 47.5994 61.9695 48.125 61.9695 48.7159V57H59.9581ZM70.5817 61.9091C70.2408 61.9091 69.9368 61.8807 69.6697 61.8239C69.4027 61.7727 69.218 61.7216 69.1158 61.6705L69.6271 59.8977C70.1158 60.0227 70.5476 60.0682 70.9226 60.0341C71.2976 60 71.63 59.8324 71.9197 59.5312C72.2152 59.2358 72.4851 58.7557 72.7294 58.0909L73.1044 57.0682L68.2635 43.9091H70.4453L74.0589 54.3409H74.1953L77.8089 43.9091H79.9908L74.4339 58.9091C74.1839 59.5852 73.8743 60.1449 73.505 60.5881C73.1357 61.0369 72.7067 61.3693 72.218 61.5852C71.7351 61.8011 71.1896 61.9091 70.5817 61.9091Z" fill="#D5906E"/>
<path d="M1.51705 25V7.54545H13.2784V10.5881H5.20739V14.7472H12.6733V17.7898H5.20739V21.9574H13.3125V25H1.51705ZM19.8771 25.2472C19.0419 25.2472 18.2976 25.1023 17.6442 24.8125C16.9908 24.517 16.4737 24.0824 16.093 23.5085C15.718 22.929 15.5305 22.2074 15.5305 21.3438C15.5305 20.6165 15.6641 20.0057 15.9311 19.5114C16.1982 19.017 16.5618 18.6193 17.022 18.3182C17.4822 18.017 18.005 17.7898 18.5902 17.6364C19.1811 17.483 19.8004 17.375 20.4482 17.3125C21.2095 17.233 21.8232 17.1591 22.2891 17.0909C22.755 17.017 23.093 16.9091 23.3033 16.767C23.5135 16.625 23.6186 16.4148 23.6186 16.1364V16.0852C23.6186 15.5455 23.4482 15.1278 23.1072 14.8324C22.772 14.5369 22.2947 14.3892 21.6754 14.3892C21.022 14.3892 20.5021 14.5341 20.1158 14.8239C19.7294 15.108 19.4737 15.4659 19.3487 15.8977L15.9908 15.625C16.1612 14.8295 16.4964 14.142 16.9964 13.5625C17.4964 12.9773 18.1413 12.5284 18.9311 12.2159C19.7266 11.8977 20.647 11.7386 21.6925 11.7386C22.4197 11.7386 23.1158 11.8239 23.7805 11.9943C24.451 12.1648 25.0447 12.429 25.5618 12.7869C26.0845 13.1449 26.4964 13.6051 26.7976 14.1676C27.0987 14.7244 27.2493 15.392 27.2493 16.1705V25H23.8061V23.1847H23.7038C23.4936 23.5938 23.2124 23.9545 22.8601 24.267C22.5078 24.5739 22.0845 24.8153 21.5902 24.9915C21.0959 25.1619 20.5249 25.2472 19.8771 25.2472ZM20.9169 22.7415C21.451 22.7415 21.9226 22.6364 22.3317 22.4261C22.7408 22.2102 23.0618 21.9205 23.2947 21.5568C23.5277 21.1932 23.6442 20.7812 23.6442 20.321V18.9318C23.5305 19.0057 23.3743 19.0739 23.1754 19.1364C22.9822 19.1932 22.7635 19.2472 22.5192 19.2983C22.2749 19.3437 22.0305 19.3864 21.7862 19.4261C21.5419 19.4602 21.3203 19.4915 21.1214 19.5199C20.6953 19.5824 20.3232 19.6818 20.005 19.8182C19.6868 19.9545 19.4396 20.1392 19.2635 20.3722C19.0874 20.5994 18.9993 20.8835 18.9993 21.2244C18.9993 21.7188 19.1783 22.0966 19.5362 22.358C19.8999 22.6136 20.3601 22.7415 20.9169 22.7415ZM30.0661 25V11.9091H33.5859V14.1932H33.7223C33.9609 13.3807 34.3615 12.767 34.924 12.3523C35.4865 11.9318 36.1342 11.7216 36.8672 11.7216C37.049 11.7216 37.245 11.733 37.4553 11.7557C37.6655 11.7784 37.8501 11.8097 38.0092 11.8494V15.071C37.8388 15.0199 37.603 14.9744 37.3018 14.9347C37.0007 14.8949 36.7251 14.875 36.4751 14.875C35.9411 14.875 35.4638 14.9915 35.0433 15.2244C34.6286 15.4517 34.299 15.7699 34.0547 16.179C33.8161 16.5881 33.6967 17.0597 33.6967 17.5938V25H30.0661ZM47.5057 11.9091V14.6364H39.6222V11.9091H47.5057ZM41.4119 8.77273H45.0426V20.9773C45.0426 21.3125 45.0938 21.5739 45.196 21.7614C45.2983 21.9432 45.4403 22.071 45.6222 22.1449C45.8097 22.2187 46.0256 22.2557 46.2699 22.2557C46.4403 22.2557 46.6108 22.2415 46.7812 22.2131C46.9517 22.179 47.0824 22.1534 47.1733 22.1364L47.7443 24.8381C47.5625 24.8949 47.3068 24.9602 46.9773 25.0341C46.6477 25.1136 46.2472 25.1619 45.7756 25.179C44.9006 25.2131 44.1335 25.0966 43.4744 24.8295C42.821 24.5625 42.3125 24.1477 41.9489 23.5852C41.5852 23.0227 41.4063 22.3125 41.4119 21.4545V8.77273ZM53.7827 17.4318V25H50.152V7.54545H53.6804V14.2188H53.8338C54.1293 13.446 54.6065 12.8409 55.2656 12.4034C55.9247 11.9602 56.7514 11.7386 57.7457 11.7386C58.6548 11.7386 59.4474 11.9375 60.1236 12.3352C60.8054 12.7273 61.3338 13.2926 61.7088 14.0312C62.0895 14.7642 62.277 15.642 62.2713 16.6648V25H58.6406V17.3125C58.6463 16.5057 58.4418 15.8778 58.027 15.429C57.6179 14.9801 57.044 14.7557 56.3054 14.7557C55.8111 14.7557 55.3736 14.8608 54.9929 15.071C54.6179 15.2812 54.3224 15.5881 54.1065 15.9915C53.8963 16.3892 53.7884 16.8693 53.7827 17.4318ZM68.7592 7.54545V25H65.1286V7.54545H68.7592ZM73.9091 29.9091C73.4489 29.9091 73.017 29.8722 72.6136 29.7983C72.2159 29.7301 71.8864 29.642 71.625 29.5341L72.4432 26.8239C72.8693 26.9545 73.2528 27.0256 73.5938 27.0369C73.9403 27.0483 74.2386 26.9688 74.4886 26.7983C74.7443 26.6278 74.9517 26.3381 75.1108 25.929L75.3239 25.375L70.6278 11.9091H74.446L77.1562 21.5227H77.2926L80.0284 11.9091H83.8722L78.7841 26.4148C78.5398 27.1193 78.2074 27.733 77.7869 28.2557C77.3722 28.7841 76.8466 29.1903 76.2102 29.4744C75.5739 29.7642 74.8068 29.9091 73.9091 29.9091Z" fill="white"/>
</svg>
