<svg width="64" height="24" viewBox="0 0 64 24" fill="none" xmlns="http://www.w3.org/2000/svg">
<g clip-path="url(#clip0_1_61)">
<path d="M19.9862 3.70966C19.869 2.99259 19.6403 2.33887 19.3229 1.81361C19.0056 1.28835 18.6106 0.909868 18.1774 0.715862C16.5912 0 10.2082 0 10.2082 0C10.2082 0 3.82499 0.0217241 2.23911 0.737586C1.8059 0.931624 1.41096 1.31012 1.09361 1.83538C0.776266 2.36064 0.547592 3.01434 0.430361 3.73138C-0.0493887 8.39586 -0.235514 15.503 0.443486 19.9806C0.560717 20.6977 0.789391 21.3514 1.10674 21.8766C1.42408 22.4019 1.81902 22.7804 2.25224 22.9744C3.83824 23.6903 10.2214 23.6903 10.2214 23.6903C10.2214 23.6903 16.6045 23.6903 18.1905 22.9744C18.6237 22.7804 19.0186 22.4019 19.336 21.8766C19.6533 21.3514 19.882 20.6977 19.9992 19.9806C20.5051 15.3097 20.6611 8.20697 19.9861 3.70986L19.9862 3.70966Z" fill="#FF0000"/>
<path d="M8.17651 16.9217L13.4718 11.8453L8.17651 6.76868V16.9217Z" fill="white"/>
<path d="M61.4045 6.87721C62.0991 6.87721 62.6234 7.09403 62.9904 7.50617C63.3574 7.91852 63.6196 8.56921 63.7769 9.45886C63.9341 10.3483 63.9996 11.563 63.9996 13.1251V15.6635H60.6311V16.4443L60.6836 18.5921C60.7229 19.0694 60.7885 19.4166 60.8933 19.6334C60.9983 19.8504 61.1685 19.9589 61.3914 19.9589C61.6929 19.9589 61.9026 19.7638 62.0074 19.3733C62.1254 18.9827 62.1778 18.3318 62.1909 17.4424L63.9341 17.616C63.9473 17.7461 63.9473 17.9197 63.9473 18.1365C63.9473 19.5033 63.7244 20.5231 63.2656 21.1955C62.8069 21.8679 62.1778 22.2151 61.352 22.2151C60.3559 22.2151 59.6613 21.6945 59.268 20.6749C58.8749 19.6551 58.6651 18.0496 58.6651 15.902V13.2769C58.7096 9.589 59.1015 6.88797 61.4045 6.87721ZM37.1695 7.15921V18.0281C37.1695 18.679 37.2088 19.1563 37.3005 19.4383C37.4866 20.0414 37.969 19.8873 38.2311 19.5902C38.3825 19.4209 38.5044 19.1891 38.585 18.9178V7.159H40.5904V21.9763H39.0175L38.8471 20.154H38.8079C38.3754 21.5207 37.733 22.2149 36.8811 22.2149C35.5699 22.2095 35.249 20.6458 35.1726 19.0576L35.1676 18.9457C35.1582 18.7052 35.1527 18.4642 35.151 18.2232V7.15921H37.1694H37.1695ZM47.511 7.15921V18.0281C47.511 18.679 47.5503 19.1563 47.642 19.4383C47.8283 20.0414 48.3105 19.8873 48.5726 19.5902C48.724 19.4209 48.8459 19.1891 48.9265 18.9178V7.159H50.9319V21.9763H49.359L49.1886 20.154H49.1494C48.7169 21.5207 48.0745 22.2149 47.2226 22.2149C45.9114 22.2095 45.5905 20.6458 45.5141 19.0576L45.5091 18.9457C45.4997 18.7052 45.4942 18.4642 45.4925 18.2232V7.15921H47.511ZM31.3499 6.87721C32.0053 6.87721 32.5426 7.09403 32.9359 7.54962C33.329 8.00521 33.6305 8.69955 33.814 9.65396C33.9975 10.6086 34.0893 11.8884 34.0893 13.4722V15.6198C34.0893 17.2036 33.9975 18.462 33.814 19.4164C33.6305 20.3712 33.3421 21.0653 32.9359 21.5209C32.5296 21.9548 31.979 22.1933 31.2975 22.1933C30.5896 22.2151 30.0391 21.9765 29.6329 21.5427C29.2266 21.0871 28.9381 20.3927 28.7679 19.4383C28.5974 18.4837 28.5188 17.2253 28.5188 15.6418V13.4938C28.5188 11.91 28.6105 10.6084 28.8071 9.65376C29.0038 8.67762 29.3051 7.98328 29.7246 7.54962C30.144 7.11555 30.6814 6.877 31.3499 6.877V6.87721ZM54.0776 0.932861V8.74279H54.0908C54.2743 8.17879 54.5101 7.72321 54.8379 7.37603C55.1439 7.03543 55.5045 6.85414 55.8733 6.85548C56.3583 6.85548 56.7253 7.07231 57.0005 7.48445C57.2758 7.91852 57.4724 8.59093 57.5903 9.52383C57.7046 10.4276 57.7696 11.6774 57.7736 13.2536L57.7738 13.4073V15.7502C57.7738 17.9412 57.6034 19.5684 57.2888 20.6098C56.9613 21.6511 56.4631 22.1718 55.7815 22.1718C55.4015 22.1718 55.0606 22.02 54.7461 21.738C54.468 21.4697 54.2373 21.0849 54.0774 20.6224L54.0514 20.5446H54.0121L53.8024 21.9548H52.1378V0.933068H54.0776V0.932861ZM46.056 1.69217V4.38203H44.0638V21.9763H42.0978V4.38224H40.0924V1.69238H46.0561L46.056 1.69217ZM24.4424 1.69217L24.4436 1.70045C24.4628 1.84134 24.7278 3.79134 25.0193 6.06328L25.0423 6.24328L25.077 6.51534L25.1003 6.69803L25.1119 6.78969L25.1351 6.97341L25.1468 7.06548L25.1699 7.24983L25.2036 7.51941C25.4005 9.09266 25.5884 10.6704 25.7008 11.8018H25.7533C25.8609 10.7869 26.0173 9.48824 26.184 8.16224L26.2278 7.8159C26.2498 7.64252 26.2718 7.46914 26.294 7.29617L26.3283 7.02783C26.5547 5.27062 26.7879 3.51583 27.0279 1.76355L27.0316 1.73562L27.0376 1.69217H29.043L26.723 15.3815V21.9548H24.7439V15.403H24.7308L22.437 1.69196L24.4424 1.69217ZM31.3105 9.17665C31.0353 9.17665 30.8518 9.41541 30.7339 9.91445C30.6159 10.4133 30.5635 11.1726 30.5635 12.2358V16.8567C30.5635 17.9414 30.6159 18.744 30.7208 19.2215C30.8256 19.6986 31.0223 19.9373 31.3105 19.9373C31.5858 19.9373 31.7824 19.6986 31.9004 19.2215C32.0184 18.744 32.0708 17.9414 32.0708 16.8567V12.2356C32.0708 11.1726 32.0183 10.3916 31.9004 9.91424C31.7824 9.41541 31.5858 9.17665 31.3105 9.17665ZM54.4315 9.61072C54.2718 9.85486 54.1581 10.1559 54.0905 10.5322L54.0776 10.6086V19.026C54.2401 19.4816 54.4709 19.7853 54.8771 19.807C55.0869 19.807 55.2571 19.6769 55.3884 19.4166C55.5194 19.1563 55.6111 18.7222 55.6635 18.1148C55.7139 17.5318 55.7401 16.7286 55.7421 15.7057V13.6458C55.7421 12.4744 55.7159 11.5849 55.6766 10.9558C55.6241 10.3266 55.5588 9.871 55.4408 9.61072C55.2126 9.06824 54.7199 9.07486 54.4315 9.61072ZM61.3653 9.11169C61.1424 9.13341 60.985 9.24183 60.8933 9.43714C60.7885 9.65396 60.7229 9.97941 60.6836 10.4567C60.645 10.9243 60.6318 12.5588 60.6311 12.6242V13.6893H62.0991V12.75V12.768C62.0983 13.0963 62.0941 12.5774 62.0851 11.9404L62.0839 11.8547C62.0756 11.2949 62.0636 10.6707 62.0468 10.4567C62.0074 9.95769 61.9418 9.61052 61.837 9.41541C61.7321 9.2201 61.5749 9.11169 61.3651 9.11169H61.3653Z" fill="white"/>
</g>
<defs>
<clipPath id="clip0_1_61">
<rect width="64" height="24" fill="white"/>
</clipPath>
</defs>
</svg>
